<svg width="110" height="110" viewBox="0 0 110 110" fill="none" xmlns="http://www.w3.org/2000/svg">
<path d="M55.0027 34.375C43.6369 34.375 34.3767 43.6348 34.3767 55C34.3767 66.3652 43.6369 75.625 55.0027 75.625C66.3685 75.625 75.6287 66.3652 75.6287 55C75.6287 43.6348 66.3685 34.375 55.0027 34.375ZM107.943 51.6699L87.5961 41.5078L94.7937 19.9375C95.7605 17.0156 92.9889 14.2441 90.0884 15.2324L68.517 22.4297L58.3329 2.0625C56.9578 -0.6875 53.0475 -0.6875 51.6724 2.0625L41.5098 22.4082L19.917 15.2109C16.995 14.2441 14.2233 17.0156 15.2117 19.916L22.4093 41.4863L2.0626 51.6699C-0.687533 53.0449 -0.687533 56.9551 2.0626 58.3301L22.4093 68.4922L15.2117 90.084C14.2448 93.0059 17.0165 95.7773 19.917 94.7891L41.4883 87.5918L51.6509 107.937C53.026 110.687 56.9364 110.687 58.3114 107.937L68.474 87.5918L90.0454 94.7891C92.9674 95.7559 95.739 92.9844 94.7507 90.084L87.5531 68.5137L107.9 58.3516C110.693 56.9551 110.693 53.0449 107.943 51.6699V51.6699ZM74.447 74.4434C63.7257 85.1641 46.2796 85.1641 35.5584 74.4434C24.8371 63.7227 24.8371 46.2773 35.5584 35.5566C46.2796 24.8359 63.7257 24.8359 74.447 35.5566C85.1682 46.2773 85.1682 63.7227 74.447 74.4434Z" fill="#686868"/>
</svg>
